<svg xmlns="http://www.w3.org/2000/svg" version="1.1" xmlns:xlink="http://www.w3.org/1999/xlink" width="1000" height="1000"><g clip-path="url(#SvgjsClipPath1569)"><rect width="1000" height="1000" fill="#ffffff"></rect><g transform="matrix(5,0,0,5,0,0)"><svg xmlns="http://www.w3.org/2000/svg" version="1.1" xmlns:xlink="http://www.w3.org/1999/xlink" width="200" height="200"><svg xmlns="http://www.w3.org/2000/svg" version="1.1" xmlns:xlink="http://www.w3.org/1999/xlink" viewBox="0 0 200 200"><rect width="200" height="200" fill="url('#gradient')"></rect><defs><linearGradient id="gradient" gradientTransform="rotate(142 0.5 0.5)"><stop offset="0%" stop-color="#473167"></stop><stop offset="100%" stop-color="#221736"></stop></linearGradient><clipPath id="SvgjsClipPath1569"><rect width="1000" height="1000" x="0" y="0" rx="250" ry="250"></rect></clipPath></defs><g><g fill="#591948" transform="matrix(11.674725274725274,0,0,11.674725274725274,32.984891548196046,183.0066731285263)" stroke="#d8bd8b" stroke-width="0.2"><path d="M5.32 0L5.98-4.00L4.40-4.00L3.75 0L1.81 0L2.46-4.00L0.29-4.00L0.29-5.79L2.75-5.79L3.18-8.37L1.03-8.37L1.03-10.16L3.48-10.16L4.15-14.22L6.08-14.22L5.42-10.16L6.99-10.16L7.67-14.22L9.61-14.22L8.94-10.16L11.19-10.16L11.19-8.37L8.64-8.37L8.21-5.79L10.45-5.79L10.45-4.00L7.92-4.00L7.27 0L5.32 0ZM5.13-8.37L4.70-5.79L6.27-5.79L6.70-8.37L5.13-8.37Z"></path></g></g></svg></svg></g></g></svg>